{
  "header": {
    "PPQ": 480,
    "timeSignature": [
      4,
      4
    ],
    "bpm": 175.00007291669704,
    "name": ""
  },
  "tempo": [
    {
      "absoluteTime": 0,
      "seconds": 0,
      "bpm": 175.00007291669704
    }
  ],
  "timeSignature": [
    {
      "absoluteTime": 0,
      "seconds": 0,
      "numerator": 4,
      "denominator": 2,
      "click": 24,
      "notesQ": 8
    }
  ],
  "startTime": 0,
  "duration": 21.942848,
  "tracks": [
    {
      "startTime": 0,
      "duration": 0,
      "length": 0,
      "notes": [],
      "controlChanges": {},
      "id": 0
    },
    {
      "startTime": 0,
      "duration": 10.799995500000001,
      "length": 23,
      "notes": [
        {
          "name": "D5",
          "midi": 74,
          "time": 0,
          "velocity": 0.6299212598425197,
          "duration": 0.1714285
        },
        {
          "name": "D5",
          "midi": 74,
          "time": 0.5142855000000001,
          "velocity": 0.6299212598425197,
          "duration": 0.17142849999999998
        },
        {
          "name": "D5",
          "midi": 74,
          "time": 1.0285710000000001,
          "velocity": 0.6299212598425197,
          "duration": 0.17142849999999998
        },
        {
          "name": "D5",
          "midi": 74,
          "time": 1.5428565,
          "velocity": 0.6299212598425197,
          "duration": 0.17142849999999998
        },
        {
          "name": "D5",
          "midi": 74,
          "time": 2.0571420000000002,
          "velocity": 0.6299212598425197,
          "duration": 0.1714285000000002
        },
        {
          "name": "A4",
          "midi": 69,
          "time": 2.7428560000000006,
          "velocity": 0.6299212598425197,
          "duration": 0.1714285000000002
        },
        {
          "name": "A4",
          "midi": 69,
          "time": 3.257141500000001,
          "velocity": 0.6299212598425197,
          "duration": 0.1714285000000002
        },
        {
          "name": "A4",
          "midi": 69,
          "time": 3.771427000000001,
          "velocity": 0.6299212598425197,
          "duration": 0.1714285000000002
        },
        {
          "name": "A4",
          "midi": 69,
          "time": 4.285712500000002,
          "velocity": 0.6299212598425197,
          "duration": 0.1714285000000002
        },
        {
          "name": "A4",
          "midi": 69,
          "time": 4.799998000000002,
          "velocity": 0.6299212598425197,
          "duration": 0.1714285000000002
        },
        {
          "name": "A4",
          "midi": 69,
          "time": 5.142855000000003,
          "velocity": 0.6299212598425197,
          "duration": 0.1714285000000002
        },
        {
          "name": "D5",
          "midi": 74,
          "time": 5.485712000000003,
          "velocity": 0.6299212598425197,
          "duration": 0.1714285000000002
        },
        {
          "name": "D5",
          "midi": 74,
          "time": 5.999997500000004,
          "velocity": 0.6299212598425197,
          "duration": 0.1714285000000002
        },
        {
          "name": "D5",
          "midi": 74,
          "time": 6.514283000000004,
          "velocity": 0.6299212598425197,
          "duration": 0.1714285000000002
        },
        {
          "name": "D5",
          "midi": 74,
          "time": 7.028568500000005,
          "velocity": 0.6299212598425197,
          "duration": 0.1714285000000002
        },
        {
          "name": "D5",
          "midi": 74,
          "time": 7.5428540000000055,
          "velocity": 0.6299212598425197,
          "duration": 0.1714285000000002
        },
        {
          "name": "D5",
          "midi": 74,
          "time": 7.885711000000006,
          "velocity": 0.6299212598425197,
          "duration": 0.17142849999999932
        },
        {
          "name": "A4",
          "midi": 69,
          "time": 8.228568000000005,
          "velocity": 0.6299212598425197,
          "duration": 0.17142849999999932
        },
        {
          "name": "A4",
          "midi": 69,
          "time": 8.742853500000004,
          "velocity": 0.6299212598425197,
          "duration": 0.17142849999999932
        },
        {
          "name": "A4",
          "midi": 69,
          "time": 9.257139000000004,
          "velocity": 0.6299212598425197,
          "duration": 0.17142849999999932
        },
        {
          "name": "A4",
          "midi": 69,
          "time": 9.771424500000004,
          "velocity": 0.6299212598425197,
          "duration": 0.17142849999999932
        },
        {
          "name": "A4",
          "midi": 69,
          "time": 10.285710000000003,
          "velocity": 0.6299212598425197,
          "duration": 0.17142849999999932
        },
        {
          "name": "A4",
          "midi": 69,
          "time": 10.628567000000002,
          "velocity": 0.6299212598425197,
          "duration": 0.17142849999999932
        }
      ],
      "controlChanges": {},
      "id": 1,
      "name": "Inst 3",
      "channelNumber": 0,
      "isPercussion": false
    },
    {
      "startTime": 10.971424,
      "duration": 21.771419500000004,
      "length": 24,
      "notes": [
        {
          "name": "D5",
          "midi": 74,
          "time": 10.971424,
          "velocity": 0.6299212598425197,
          "duration": 0.17142849999999932
        },
        {
          "name": "D5",
          "midi": 74,
          "time": 11.4857095,
          "velocity": 0.6299212598425197,
          "duration": 0.17142849999999932
        },
        {
          "name": "D5",
          "midi": 74,
          "time": 11.999995,
          "velocity": 0.6299212598425197,
          "duration": 0.17142849999999932
        },
        {
          "name": "D5",
          "midi": 74,
          "time": 12.5142805,
          "velocity": 0.6299212598425197,
          "duration": 0.17142849999999932
        },
        {
          "name": "D5",
          "midi": 74,
          "time": 13.028566,
          "velocity": 0.6299212598425197,
          "duration": 0.17142849999999932
        },
        {
          "name": "D5",
          "midi": 74,
          "time": 13.371422999999998,
          "velocity": 0.6299212598425197,
          "duration": 0.17142849999999932
        },
        {
          "name": "A4",
          "midi": 69,
          "time": 13.714279999999997,
          "velocity": 0.6299212598425197,
          "duration": 0.17142849999999932
        },
        {
          "name": "A4",
          "midi": 69,
          "time": 14.228565499999997,
          "velocity": 0.6299212598425197,
          "duration": 0.17142849999999932
        },
        {
          "name": "A4",
          "midi": 69,
          "time": 14.742850999999996,
          "velocity": 0.6299212598425197,
          "duration": 0.17142849999999932
        },
        {
          "name": "A4",
          "midi": 69,
          "time": 15.257136499999996,
          "velocity": 0.6299212598425197,
          "duration": 0.17142849999999932
        },
        {
          "name": "A4",
          "midi": 69,
          "time": 15.771421999999996,
          "velocity": 0.6299212598425197,
          "duration": 0.17142849999999932
        },
        {
          "name": "A4",
          "midi": 69,
          "time": 16.114278999999996,
          "velocity": 0.6299212598425197,
          "duration": 0.1714285000000011
        },
        {
          "name": "D5",
          "midi": 74,
          "time": 16.457136,
          "velocity": 0.6299212598425197,
          "duration": 0.1714285000000011
        },
        {
          "name": "D5",
          "midi": 74,
          "time": 16.971421499999998,
          "velocity": 0.6299212598425197,
          "duration": 0.1714285000000011
        },
        {
          "name": "D5",
          "midi": 74,
          "time": 17.485706999999998,
          "velocity": 0.6299212598425197,
          "duration": 0.1714285000000011
        },
        {
          "name": "D5",
          "midi": 74,
          "time": 17.999992499999998,
          "velocity": 0.6299212598425197,
          "duration": 0.1714285000000011
        },
        {
          "name": "D5",
          "midi": 74,
          "time": 18.514277999999997,
          "velocity": 0.6299212598425197,
          "duration": 0.1714285000000011
        },
        {
          "name": "D5",
          "midi": 74,
          "time": 18.857135,
          "velocity": 0.6299212598425197,
          "duration": 0.1714285000000011
        },
        {
          "name": "A4",
          "midi": 69,
          "time": 19.199992,
          "velocity": 0.6299212598425197,
          "duration": 0.1714285000000011
        },
        {
          "name": "A4",
          "midi": 69,
          "time": 19.7142775,
          "velocity": 0.6299212598425197,
          "duration": 0.1714285000000011
        },
        {
          "name": "A4",
          "midi": 69,
          "time": 20.228563,
          "velocity": 0.6299212598425197,
          "duration": 0.1714285000000011
        },
        {
          "name": "A4",
          "midi": 69,
          "time": 20.7428485,
          "velocity": 0.6299212598425197,
          "duration": 0.1714285000000011
        },
        {
          "name": "A4",
          "midi": 69,
          "time": 21.257134,
          "velocity": 0.6299212598425197,
          "duration": 0.1714285000000011
        },
        {
          "name": "G4",
          "midi": 67,
          "time": 21.599991000000003,
          "velocity": 0.6299212598425197,
          "duration": 0.1714285000000011
        }
      ],
      "controlChanges": {},
      "id": 2,
      "name": "Inst 3",
      "channelNumber": 0,
      "isPercussion": false
    },
    {
      "startTime": 0.1714285,
      "duration": 5.485712000000004,
      "length": 16,
      "notes": [
        {
          "name": "C3",
          "midi": 48,
          "time": 0.1714285,
          "velocity": 0.6299212598425197,
          "duration": 0.1714285
        },
        {
          "name": "C3",
          "midi": 48,
          "time": 0.5142855000000001,
          "velocity": 0.6299212598425197,
          "duration": 0.17142849999999998
        },
        {
          "name": "C3",
          "midi": 48,
          "time": 0.8571425,
          "velocity": 0.6299212598425197,
          "duration": 0.1714285000000001
        },
        {
          "name": "C3",
          "midi": 48,
          "time": 1.1999995,
          "velocity": 0.6299212598425197,
          "duration": 0.17142849999999998
        },
        {
          "name": "C3",
          "midi": 48,
          "time": 1.5428565,
          "velocity": 0.6299212598425197,
          "duration": 0.17142849999999998
        },
        {
          "name": "C3",
          "midi": 48,
          "time": 1.8857135,
          "velocity": 0.6299212598425197,
          "duration": 0.1714285000000002
        },
        {
          "name": "C3",
          "midi": 48,
          "time": 2.2285705000000005,
          "velocity": 0.6299212598425197,
          "duration": 0.1714285000000002
        },
        {
          "name": "C3",
          "midi": 48,
          "time": 2.571427500000001,
          "velocity": 0.6299212598425197,
          "duration": 0.1714285000000002
        },
        {
          "name": "G2",
          "midi": 43,
          "time": 2.9142845000000013,
          "velocity": 0.6299212598425197,
          "duration": 0.1714285000000002
        },
        {
          "name": "G2",
          "midi": 43,
          "time": 3.2571415000000017,
          "velocity": 0.6299212598425197,
          "duration": 0.1714285000000002
        },
        {
          "name": "G2",
          "midi": 43,
          "time": 3.599998500000002,
          "velocity": 0.6299212598425197,
          "duration": 0.1714285000000002
        },
        {
          "name": "G2",
          "midi": 43,
          "time": 3.9428555000000025,
          "velocity": 0.6299212598425197,
          "duration": 0.17142849999999976
        },
        {
          "name": "G2",
          "midi": 43,
          "time": 4.2857125000000025,
          "velocity": 0.6299212598425197,
          "duration": 0.1714285000000002
        },
        {
          "name": "G2",
          "midi": 43,
          "time": 4.628569500000003,
          "velocity": 0.6299212598425197,
          "duration": 0.1714285000000002
        },
        {
          "name": "G2",
          "midi": 43,
          "time": 4.971426500000003,
          "velocity": 0.6299212598425197,
          "duration": 0.1714285000000002
        },
        {
          "name": "G2",
          "midi": 43,
          "time": 5.314283500000004,
          "velocity": 0.6299212598425197,
          "duration": 0.1714285000000002
        }
      ],
      "controlChanges": {},
      "id": 3,
      "name": "Classic Electric Piano",
      "channelNumber": 0,
      "isPercussion": false
    },
    {
      "startTime": 5.657140500000001,
      "duration": 10.971423999999992,
      "length": 16,
      "notes": [
        {
          "name": "C3",
          "midi": 48,
          "time": 5.657140500000001,
          "velocity": 0.6299212598425197,
          "duration": 0.1714285000000002
        },
        {
          "name": "C3",
          "midi": 48,
          "time": 5.999997500000001,
          "velocity": 0.6299212598425197,
          "duration": 0.1714285000000002
        },
        {
          "name": "C3",
          "midi": 48,
          "time": 6.342854500000001,
          "velocity": 0.6299212598425197,
          "duration": 0.1714285000000002
        },
        {
          "name": "C3",
          "midi": 48,
          "time": 6.685711500000002,
          "velocity": 0.6299212598425197,
          "duration": 0.1714285000000002
        },
        {
          "name": "C3",
          "midi": 48,
          "time": 7.028568500000002,
          "velocity": 0.6299212598425197,
          "duration": 0.1714285000000002
        },
        {
          "name": "C3",
          "midi": 48,
          "time": 7.371425500000003,
          "velocity": 0.6299212598425197,
          "duration": 0.1714285000000002
        },
        {
          "name": "C3",
          "midi": 48,
          "time": 7.714282500000003,
          "velocity": 0.6299212598425197,
          "duration": 0.1714285000000002
        },
        {
          "name": "C3",
          "midi": 48,
          "time": 8.057139500000003,
          "velocity": 0.6299212598425197,
          "duration": 0.17142849999999932
        },
        {
          "name": "G2",
          "midi": 43,
          "time": 8.399996500000002,
          "velocity": 0.6299212598425197,
          "duration": 0.17142849999999932
        },
        {
          "name": "G2",
          "midi": 43,
          "time": 8.7428535,
          "velocity": 0.6299212598425197,
          "duration": 0.17142849999999932
        },
        {
          "name": "G2",
          "midi": 43,
          "time": 9.0857105,
          "velocity": 0.6299212598425197,
          "duration": 0.17142849999999932
        },
        {
          "name": "G2",
          "midi": 43,
          "time": 9.428567499999998,
          "velocity": 0.6299212598425197,
          "duration": 0.17142849999999932
        },
        {
          "name": "G2",
          "midi": 43,
          "time": 9.771424499999997,
          "velocity": 0.6299212598425197,
          "duration": 0.17142849999999932
        },
        {
          "name": "G2",
          "midi": 43,
          "time": 10.114281499999995,
          "velocity": 0.6299212598425197,
          "duration": 0.17142849999999932
        },
        {
          "name": "G2",
          "midi": 43,
          "time": 10.457138499999994,
          "velocity": 0.6299212598425197,
          "duration": 0.17142849999999932
        },
        {
          "name": "G2",
          "midi": 43,
          "time": 10.799995499999993,
          "velocity": 0.6299212598425197,
          "duration": 0.17142849999999932
        }
      ],
      "controlChanges": {},
      "id": 4,
      "name": "Classic Electric Piano",
      "channelNumber": 0,
      "isPercussion": false
    },
    {
      "startTime": 11.1428525,
      "duration": 16.457135999999984,
      "length": 16,
      "notes": [
        {
          "name": "C3",
          "midi": 48,
          "time": 11.1428525,
          "velocity": 0.6299212598425197,
          "duration": 0.17142849999999932
        },
        {
          "name": "C3",
          "midi": 48,
          "time": 11.485709499999999,
          "velocity": 0.6299212598425197,
          "duration": 0.17142849999999932
        },
        {
          "name": "C3",
          "midi": 48,
          "time": 11.828566499999997,
          "velocity": 0.6299212598425197,
          "duration": 0.17142849999999932
        },
        {
          "name": "C3",
          "midi": 48,
          "time": 12.171423499999996,
          "velocity": 0.6299212598425197,
          "duration": 0.17142849999999932
        },
        {
          "name": "C3",
          "midi": 48,
          "time": 12.514280499999995,
          "velocity": 0.6299212598425197,
          "duration": 0.17142849999999932
        },
        {
          "name": "C3",
          "midi": 48,
          "time": 12.857137499999993,
          "velocity": 0.6299212598425197,
          "duration": 0.17142849999999932
        },
        {
          "name": "C3",
          "midi": 48,
          "time": 13.199994499999992,
          "velocity": 0.6299212598425197,
          "duration": 0.17142849999999932
        },
        {
          "name": "C3",
          "midi": 48,
          "time": 13.54285149999999,
          "velocity": 0.6299212598425197,
          "duration": 0.17142849999999932
        },
        {
          "name": "G2",
          "midi": 43,
          "time": 13.88570849999999,
          "velocity": 0.6299212598425197,
          "duration": 0.17142849999999932
        },
        {
          "name": "G2",
          "midi": 43,
          "time": 14.228565499999988,
          "velocity": 0.6299212598425197,
          "duration": 0.17142849999999932
        },
        {
          "name": "G2",
          "midi": 43,
          "time": 14.571422499999986,
          "velocity": 0.6299212598425197,
          "duration": 0.17142849999999932
        },
        {
          "name": "G2",
          "midi": 43,
          "time": 14.914279499999985,
          "velocity": 0.6299212598425197,
          "duration": 0.17142849999999932
        },
        {
          "name": "G2",
          "midi": 43,
          "time": 15.257136499999984,
          "velocity": 0.6299212598425197,
          "duration": 0.17142849999999932
        },
        {
          "name": "G2",
          "midi": 43,
          "time": 15.599993499999982,
          "velocity": 0.6299212598425197,
          "duration": 0.17142849999999932
        },
        {
          "name": "G2",
          "midi": 43,
          "time": 15.942850499999981,
          "velocity": 0.6299212598425197,
          "duration": 0.1714285000000011
        },
        {
          "name": "G2",
          "midi": 43,
          "time": 16.285707499999983,
          "velocity": 0.6299212598425197,
          "duration": 0.1714285000000011
        }
      ],
      "controlChanges": {},
      "id": 5,
      "name": "Classic Electric Piano",
      "channelNumber": 0,
      "isPercussion": false
    },
    {
      "startTime": 16.628564500000003,
      "duration": 21.257134000000033,
      "length": 14,
      "notes": [
        {
          "name": "C3",
          "midi": 48,
          "time": 16.628564500000003,
          "velocity": 0.6299212598425197,
          "duration": 0.1714285000000011
        },
        {
          "name": "C3",
          "midi": 48,
          "time": 16.971421500000005,
          "velocity": 0.6299212598425197,
          "duration": 0.1714285000000011
        },
        {
          "name": "C3",
          "midi": 48,
          "time": 17.314278500000007,
          "velocity": 0.6299212598425197,
          "duration": 0.1714285000000011
        },
        {
          "name": "C3",
          "midi": 48,
          "time": 17.65713550000001,
          "velocity": 0.6299212598425197,
          "duration": 0.1714285000000011
        },
        {
          "name": "C3",
          "midi": 48,
          "time": 17.999992500000012,
          "velocity": 0.6299212598425197,
          "duration": 0.1714285000000011
        },
        {
          "name": "C3",
          "midi": 48,
          "time": 18.342849500000014,
          "velocity": 0.6299212598425197,
          "duration": 0.1714285000000011
        },
        {
          "name": "C3",
          "midi": 48,
          "time": 18.685706500000016,
          "velocity": 0.6299212598425197,
          "duration": 0.1714285000000011
        },
        {
          "name": "C3",
          "midi": 48,
          "time": 19.02856350000002,
          "velocity": 0.6299212598425197,
          "duration": 0.1714285000000011
        },
        {
          "name": "G2",
          "midi": 43,
          "time": 19.37142050000002,
          "velocity": 0.6299212598425197,
          "duration": 0.1714285000000011
        },
        {
          "name": "G2",
          "midi": 43,
          "time": 19.714277500000023,
          "velocity": 0.6299212598425197,
          "duration": 0.1714285000000011
        },
        {
          "name": "G2",
          "midi": 43,
          "time": 20.057134500000025,
          "velocity": 0.6299212598425197,
          "duration": 0.1714285000000011
        },
        {
          "name": "G2",
          "midi": 43,
          "time": 20.399991500000027,
          "velocity": 0.6299212598425197,
          "duration": 0.1714285000000011
        },
        {
          "name": "G2",
          "midi": 43,
          "time": 20.74284850000003,
          "velocity": 0.6299212598425197,
          "duration": 0.1714285000000011
        },
        {
          "name": "G2",
          "midi": 43,
          "time": 21.08570550000003,
          "velocity": 0.6299212598425197,
          "duration": 0.1714285000000011
        }
      ],
      "controlChanges": {},
      "id": 6,
      "name": "Classic Electric Piano",
      "channelNumber": 0,
      "isPercussion": false
    },
    {
      "startTime": 0,
      "duration": 5.485712,
      "length": 10,
      "notes": [
        {
          "name": "C4",
          "midi": 60,
          "time": 0,
          "velocity": 0.6299212598425197,
          "duration": 2.742856
        },
        {
          "name": "E4",
          "midi": 64,
          "time": 0,
          "velocity": 0.6299212598425197,
          "duration": 2.742856
        },
        {
          "name": "G4",
          "midi": 67,
          "time": 0,
          "velocity": 0.6299212598425197,
          "duration": 2.742856
        },
        {
          "name": "B4",
          "midi": 71,
          "time": 0,
          "velocity": 0.6299212598425197,
          "duration": 2.742856
        },
        {
          "name": "D5",
          "midi": 74,
          "time": 0,
          "velocity": 0.6299212598425197,
          "duration": 2.742856
        },
        {
          "name": "G3",
          "midi": 55,
          "time": 2.742856,
          "velocity": 0.6299212598425197,
          "duration": 2.742856
        },
        {
          "name": "B3",
          "midi": 59,
          "time": 2.742856,
          "velocity": 0.6299212598425197,
          "duration": 2.742856
        },
        {
          "name": "D4",
          "midi": 62,
          "time": 2.742856,
          "velocity": 0.6299212598425197,
          "duration": 2.742856
        },
        {
          "name": "F#4",
          "midi": 66,
          "time": 2.742856,
          "velocity": 0.6299212598425197,
          "duration": 2.742856
        },
        {
          "name": "A4",
          "midi": 69,
          "time": 2.742856,
          "velocity": 0.6299212598425197,
          "duration": 2.742856
        }
      ],
      "controlChanges": {},
      "id": 7,
      "name": "Classic Electric Piano",
      "channelNumber": 0,
      "isPercussion": false
    },
    {
      "startTime": 5.485712,
      "duration": 10.971424,
      "length": 10,
      "notes": [
        {
          "name": "C4",
          "midi": 60,
          "time": 5.485712,
          "velocity": 0.6299212598425197,
          "duration": 2.7428560000000006
        },
        {
          "name": "E4",
          "midi": 64,
          "time": 5.485712,
          "velocity": 0.6299212598425197,
          "duration": 2.7428560000000006
        },
        {
          "name": "G4",
          "midi": 67,
          "time": 5.485712,
          "velocity": 0.6299212598425197,
          "duration": 2.7428560000000006
        },
        {
          "name": "B4",
          "midi": 71,
          "time": 5.485712,
          "velocity": 0.6299212598425197,
          "duration": 2.7428560000000006
        },
        {
          "name": "D5",
          "midi": 74,
          "time": 5.485712,
          "velocity": 0.6299212598425197,
          "duration": 2.7428560000000006
        },
        {
          "name": "G3",
          "midi": 55,
          "time": 8.228568000000001,
          "velocity": 0.6299212598425197,
          "duration": 2.7428559999999997
        },
        {
          "name": "B3",
          "midi": 59,
          "time": 8.228568000000001,
          "velocity": 0.6299212598425197,
          "duration": 2.7428559999999997
        },
        {
          "name": "D4",
          "midi": 62,
          "time": 8.228568000000001,
          "velocity": 0.6299212598425197,
          "duration": 2.7428559999999997
        },
        {
          "name": "F#4",
          "midi": 66,
          "time": 8.228568000000001,
          "velocity": 0.6299212598425197,
          "duration": 2.7428559999999997
        },
        {
          "name": "A4",
          "midi": 69,
          "time": 8.228568000000001,
          "velocity": 0.6299212598425197,
          "duration": 2.7428559999999997
        }
      ],
      "controlChanges": {},
      "id": 8,
      "name": "Classic Electric Piano",
      "channelNumber": 0,
      "isPercussion": false
    },
    {
      "startTime": 10.971424,
      "duration": 16.457136000000002,
      "length": 10,
      "notes": [
        {
          "name": "C4",
          "midi": 60,
          "time": 10.971424,
          "velocity": 0.6299212598425197,
          "duration": 2.7428559999999997
        },
        {
          "name": "E4",
          "midi": 64,
          "time": 10.971424,
          "velocity": 0.6299212598425197,
          "duration": 2.7428559999999997
        },
        {
          "name": "G4",
          "midi": 67,
          "time": 10.971424,
          "velocity": 0.6299212598425197,
          "duration": 2.7428559999999997
        },
        {
          "name": "B4",
          "midi": 71,
          "time": 10.971424,
          "velocity": 0.6299212598425197,
          "duration": 2.7428559999999997
        },
        {
          "name": "D5",
          "midi": 74,
          "time": 10.971424,
          "velocity": 0.6299212598425197,
          "duration": 2.7428559999999997
        },
        {
          "name": "G3",
          "midi": 55,
          "time": 13.71428,
          "velocity": 0.6299212598425197,
          "duration": 2.7428560000000015
        },
        {
          "name": "B3",
          "midi": 59,
          "time": 13.71428,
          "velocity": 0.6299212598425197,
          "duration": 2.7428560000000015
        },
        {
          "name": "D4",
          "midi": 62,
          "time": 13.71428,
          "velocity": 0.6299212598425197,
          "duration": 2.7428560000000015
        },
        {
          "name": "F#4",
          "midi": 66,
          "time": 13.71428,
          "velocity": 0.6299212598425197,
          "duration": 2.7428560000000015
        },
        {
          "name": "A4",
          "midi": 69,
          "time": 13.71428,
          "velocity": 0.6299212598425197,
          "duration": 2.7428560000000015
        }
      ],
      "controlChanges": {},
      "id": 9,
      "name": "Classic Electric Piano",
      "channelNumber": 0,
      "isPercussion": false
    },
    {
      "startTime": 16.457136000000002,
      "duration": 21.942848,
      "length": 10,
      "notes": [
        {
          "name": "C4",
          "midi": 60,
          "time": 16.457136000000002,
          "velocity": 0.6299212598425197,
          "duration": 2.7428559999999997
        },
        {
          "name": "E4",
          "midi": 64,
          "time": 16.457136000000002,
          "velocity": 0.6299212598425197,
          "duration": 2.7428559999999997
        },
        {
          "name": "G4",
          "midi": 67,
          "time": 16.457136000000002,
          "velocity": 0.6299212598425197,
          "duration": 2.7428559999999997
        },
        {
          "name": "B4",
          "midi": 71,
          "time": 16.457136000000002,
          "velocity": 0.6299212598425197,
          "duration": 2.7428559999999997
        },
        {
          "name": "D5",
          "midi": 74,
          "time": 16.457136000000002,
          "velocity": 0.6299212598425197,
          "duration": 2.7428559999999997
        },
        {
          "name": "G3",
          "midi": 55,
          "time": 19.199992,
          "velocity": 0.6299212598425197,
          "duration": 2.7428559999999997
        },
        {
          "name": "B3",
          "midi": 59,
          "time": 19.199992,
          "velocity": 0.6299212598425197,
          "duration": 2.7428559999999997
        },
        {
          "name": "D4",
          "midi": 62,
          "time": 19.199992,
          "velocity": 0.6299212598425197,
          "duration": 2.7428559999999997
        },
        {
          "name": "F#4",
          "midi": 66,
          "time": 19.199992,
          "velocity": 0.6299212598425197,
          "duration": 2.7428559999999997
        },
        {
          "name": "A4",
          "midi": 69,
          "time": 19.199992,
          "velocity": 0.6299212598425197,
          "duration": 2.7428559999999997
        }
      ],
      "controlChanges": {},
      "id": 10,
      "name": "Classic Electric Piano",
      "channelNumber": 0,
      "isPercussion": false
    }
  ]
}